<svg width="2084" height="263" viewBox="0 0 2084 263" fill="none" xmlns="http://www.w3.org/2000/svg">
<path d="M0 127.641C0 127.641 72.0643 151.972 134.646 159.511C197.229 167.05 273.718 169.448 358.425 152.657C443.132 135.866 562.607 91.3174 659.957 86.5199C757.307 81.7224 830.004 111.536 921.664 118.046C1013.33 124.557 1102.46 80.3517 1242.79 105.71C1383.13 131.068 1373.65 148.202 1457.72 154.37C1541.8 160.539 1582.25 136.894 1676.44 114.62C1770.63 92.3455 1886.31 145.632 1976.08 143.405C2065.84 141.177 2083.54 127.641 2083.54 127.641V263H0V127.641Z" fill="#BAE8C9"/>
<path d="M0 127.641C0 127.641 72.0643 151.972 134.646 159.511C197.229 167.05 273.718 169.448 358.425 152.657C443.132 135.866 562.607 91.3174 659.957 86.5199C757.307 81.7224 830.004 111.536 921.664 118.046C1013.33 124.557 1102.46 80.3517 1242.79 105.71C1383.13 131.068 1373.65 148.202 1457.72 154.37C1541.8 160.539 1582.25 136.894 1676.44 114.62C1770.63 92.3455 1886.31 145.632 1976.08 143.405C2065.84 141.177 2083.54 127.641 2083.54 127.641V263H0V127.641Z" fill="#BAE8C9"/>
<path d="M0 127.641C0 127.641 72.0643 151.972 134.646 159.511C197.229 167.05 273.718 169.448 358.425 152.657C443.132 135.866 562.607 91.3174 659.957 86.5199C757.307 81.7224 830.004 111.536 921.664 118.046C1013.33 124.557 1102.46 80.3517 1242.79 105.71C1383.13 131.068 1373.65 148.202 1457.72 154.37C1541.8 160.539 1582.25 136.894 1676.44 114.62C1770.63 92.3455 1886.31 145.632 1976.08 143.405C2065.84 141.177 2083.54 127.641 2083.54 127.641V263H0V127.641Z" fill="#BAE8C9"/>
<path d="M0 127.641C0 127.641 72.0643 151.972 134.646 159.511C197.229 167.05 273.718 169.448 358.425 152.657C443.132 135.866 562.607 91.3174 659.957 86.5199C757.307 81.7224 830.004 111.536 921.664 118.046C1013.33 124.557 1102.46 80.3517 1242.79 105.71C1383.13 131.068 1373.65 148.202 1457.72 154.37C1541.8 160.539 1582.25 136.894 1676.44 114.62C1770.63 92.3455 1886.31 145.632 1976.08 143.405C2065.84 141.177 2083.54 127.641 2083.54 127.641V263H0V127.641Z" fill="#BAE8C9"/>
<path d="M0 127.641C0 127.641 72.0643 151.972 134.646 159.511C197.229 167.05 273.718 169.448 358.425 152.657C443.132 135.866 562.607 91.3174 659.957 86.5199C757.307 81.7224 830.004 111.536 921.664 118.046C1013.33 124.557 1102.46 80.3517 1242.79 105.71C1383.13 131.068 1373.65 148.202 1457.72 154.37C1541.8 160.539 1582.25 136.894 1676.44 114.62C1770.63 92.3455 1886.31 145.632 1976.08 143.405C2065.84 141.177 2083.54 127.641 2083.54 127.641V263H0V127.641Z" fill="#BAE8C9"/>
<path d="M0 127.641C0 127.641 72.0643 151.972 134.646 159.511C197.229 167.05 273.718 169.448 358.425 152.657C443.132 135.866 562.607 91.3174 659.957 86.5199C757.307 81.7224 830.004 111.536 921.664 118.046C1013.33 124.557 1102.46 80.3517 1242.79 105.71C1383.13 131.068 1373.65 148.202 1457.72 154.37C1541.8 160.539 1582.25 136.894 1676.44 114.62C1770.63 92.3455 1886.31 145.632 1976.08 143.405C2065.84 141.177 2083.54 127.641 2083.54 127.641V263H0V127.641Z" fill="#BAE8C9"/>
<path d="M0 127.641C0 127.641 72.0643 151.972 134.646 159.511C197.229 167.05 273.718 169.448 358.425 152.657C443.132 135.866 562.607 91.3174 659.957 86.5199C757.307 81.7224 830.004 111.536 921.664 118.046C1013.33 124.557 1102.46 80.3517 1242.79 105.71C1383.13 131.068 1373.65 148.202 1457.72 154.37C1541.8 160.539 1582.25 136.894 1676.44 114.62C1770.63 92.3455 1886.31 145.632 1976.08 143.405C2065.84 141.177 2083.54 127.641 2083.54 127.641V263H0V127.641Z" fill="#BAE8C9"/>
<path d="M0 127.641C0 127.641 72.0643 151.972 134.646 159.511C197.229 167.05 273.718 169.448 358.425 152.657C443.132 135.866 562.607 91.3174 659.957 86.5199C757.307 81.7224 830.004 111.536 921.664 118.046C1013.33 124.557 1102.46 80.3517 1242.79 105.71C1383.13 131.068 1373.65 148.202 1457.72 154.37C1541.8 160.539 1582.25 136.894 1676.44 114.62C1770.63 92.3455 1886.31 145.632 1976.08 143.405C2065.84 141.177 2083.54 127.641 2083.54 127.641V263H0V127.641Z" fill="#BAE8C9"/>
<path d="M0 127.641C0 127.641 72.0643 151.972 134.646 159.511C197.229 167.05 273.718 169.448 358.425 152.657C443.132 135.866 562.607 91.3174 659.957 86.5199C757.307 81.7224 830.004 111.536 921.664 118.046C1013.33 124.557 1102.46 80.3517 1242.79 105.71C1383.13 131.068 1373.65 148.202 1457.72 154.37C1541.8 160.539 1582.25 136.894 1676.44 114.62C1770.63 92.3455 1886.31 145.632 1976.08 143.405C2065.84 141.177 2083.54 127.641 2083.54 127.641V263H0V127.641Z" fill="#BAE8C9"/>
<path d="M0 127.641C0 127.641 72.0643 151.972 134.646 159.511C197.229 167.05 273.718 169.448 358.425 152.657C443.132 135.866 562.607 91.3174 659.957 86.5199C757.307 81.7224 830.004 111.536 921.664 118.046C1013.33 124.557 1102.46 80.3517 1242.79 105.71C1383.13 131.068 1373.65 148.202 1457.72 154.37C1541.8 160.539 1582.25 136.894 1676.44 114.62C1770.63 92.3455 1886.31 145.632 1976.08 143.405C2065.84 141.177 2083.54 127.641 2083.54 127.641V263H0V127.641Z" fill="#BAE8C9"/>
<path d="M0 127.641C0 127.641 72.0643 151.972 134.646 159.511C197.229 167.05 273.718 169.448 358.425 152.657C443.132 135.866 562.607 91.3174 659.957 86.5199C757.307 81.7224 830.004 111.536 921.664 118.046C1013.33 124.557 1102.46 80.3517 1242.79 105.71C1383.13 131.068 1373.65 148.202 1457.72 154.37C1541.8 160.539 1582.25 136.894 1676.44 114.62C1770.63 92.3455 1886.31 145.632 1976.08 143.405C2065.84 141.177 2083.54 127.641 2083.54 127.641V263H0V127.641Z" fill="#BAE8C9"/>
<path d="M0 127.641C0 127.641 72.0643 151.972 134.646 159.511C197.229 167.05 273.718 169.448 358.425 152.657C443.132 135.866 562.607 91.3174 659.957 86.5199C757.307 81.7224 830.004 111.536 921.664 118.046C1013.33 124.557 1102.46 80.3517 1242.79 105.71C1383.13 131.068 1373.65 148.202 1457.72 154.37C1541.8 160.539 1582.25 136.894 1676.44 114.62C1770.63 92.3455 1886.31 145.632 1976.08 143.405C2065.84 141.177 2083.54 127.641 2083.54 127.641V263H0V127.641Z" fill="#BAE8C9"/>
<path d="M0 127.641C0 127.641 72.0643 151.972 134.646 159.511C197.229 167.05 273.718 169.448 358.425 152.657C443.132 135.866 562.607 91.3174 659.957 86.5199C757.307 81.7224 830.004 111.536 921.664 118.046C1013.33 124.557 1102.46 80.3517 1242.79 105.71C1383.13 131.068 1373.65 148.202 1457.72 154.37C1541.8 160.539 1582.25 136.894 1676.44 114.62C1770.63 92.3455 1886.31 145.632 1976.08 143.405C2065.84 141.177 2083.54 127.641 2083.54 127.641V263H0V127.641Z" fill="#BAE8C9"/>
<path d="M0 127.641C0 127.641 72.0643 151.972 134.646 159.511C197.229 167.05 273.718 169.448 358.425 152.657C443.132 135.866 562.607 91.3174 659.957 86.5199C757.307 81.7224 830.004 111.536 921.664 118.046C1013.33 124.557 1102.46 80.3517 1242.79 105.71C1383.13 131.068 1373.65 148.202 1457.72 154.37C1541.8 160.539 1582.25 136.894 1676.44 114.62C1770.63 92.3455 1886.31 145.632 1976.08 143.405C2065.84 141.177 2083.54 127.641 2083.54 127.641V263H0V127.641Z" fill="#BAE8C9"/>
<path d="M0 127.641C0 127.641 72.0643 151.972 134.646 159.511C197.229 167.05 273.718 169.448 358.425 152.657C443.132 135.866 562.607 91.3174 659.957 86.5199C757.307 81.7224 830.004 111.536 921.664 118.046C1013.33 124.557 1102.46 80.3517 1242.79 105.71C1383.13 131.068 1373.65 148.202 1457.72 154.37C1541.8 160.539 1582.25 136.894 1676.44 114.62C1770.63 92.3455 1886.31 145.632 1976.08 143.405C2065.84 141.177 2083.54 127.641 2083.54 127.641V263H0V127.641Z" fill="#BAE8C9"/>
<path d="M0 127.641C0 127.641 72.0643 151.972 134.646 159.511C197.229 167.05 273.718 169.448 358.425 152.657C443.132 135.866 562.607 91.3174 659.957 86.5199C757.307 81.7224 830.004 111.536 921.664 118.046C1013.33 124.557 1102.46 80.3517 1242.79 105.71C1383.13 131.068 1373.65 148.202 1457.72 154.37C1541.8 160.539 1582.25 136.894 1676.44 114.62C1770.63 92.3455 1886.31 145.632 1976.08 143.405C2065.84 141.177 2083.54 127.641 2083.54 127.641V263H0V127.641Z" fill="#BAE8C9"/>
<path d="M0 127.641C0 127.641 72.0643 151.972 134.646 159.511C197.229 167.05 273.718 169.448 358.425 152.657C443.132 135.866 562.607 91.3174 659.957 86.5199C757.307 81.7224 830.004 111.536 921.664 118.046C1013.33 124.557 1102.46 80.3517 1242.79 105.71C1383.13 131.068 1373.65 148.202 1457.72 154.37C1541.8 160.539 1582.25 136.894 1676.44 114.62C1770.63 92.3455 1886.31 145.632 1976.08 143.405C2065.84 141.177 2083.54 127.641 2083.54 127.641V263H0V127.641Z" fill="#BAE8C9"/>
<path d="M0 127.641C0 127.641 72.0643 151.972 134.646 159.511C197.229 167.05 273.718 169.448 358.425 152.657C443.132 135.866 562.607 91.3174 659.957 86.5199C757.307 81.7224 830.004 111.536 921.664 118.046C1013.33 124.557 1102.46 80.3517 1242.79 105.71C1383.13 131.068 1373.65 148.202 1457.72 154.37C1541.8 160.539 1582.25 136.894 1676.44 114.62C1770.63 92.3455 1886.31 145.632 1976.08 143.405C2065.84 141.177 2083.54 127.641 2083.54 127.641V263H0V127.641Z" fill="#BAE8C9"/>
<path d="M0 127.641C0 127.641 72.0643 151.972 134.646 159.511C197.229 167.05 273.718 169.448 358.425 152.657C443.132 135.866 562.607 91.3174 659.957 86.5199C757.307 81.7224 830.004 111.536 921.664 118.046C1013.33 124.557 1102.46 80.3517 1242.79 105.71C1383.13 131.068 1373.65 148.202 1457.72 154.37C1541.8 160.539 1582.25 136.894 1676.44 114.62C1770.63 92.3455 1886.31 145.632 1976.08 143.405C2065.84 141.177 2083.54 127.641 2083.54 127.641V263H0V127.641Z" fill="#BAE8C9"/>
<path d="M0 127.641C0 127.641 72.0643 151.972 134.646 159.511C197.229 167.05 273.718 169.448 358.425 152.657C443.132 135.866 562.607 91.3174 659.957 86.5199C757.307 81.7224 830.004 111.536 921.664 118.046C1013.33 124.557 1102.46 80.3517 1242.79 105.71C1383.13 131.068 1373.65 148.202 1457.72 154.37C1541.8 160.539 1582.25 136.894 1676.44 114.62C1770.63 92.3455 1886.31 145.632 1976.08 143.405C2065.84 141.177 2083.54 127.641 2083.54 127.641V263H0V127.641Z" fill="#BAE8C9"/>
<path d="M0 127.641C0 127.641 72.0643 151.972 134.646 159.511C197.229 167.05 273.718 169.448 358.425 152.657C443.132 135.866 562.607 91.3174 659.957 86.5199C757.307 81.7224 830.004 111.536 921.664 118.046C1013.33 124.557 1102.46 80.3517 1242.79 105.71C1383.13 131.068 1373.65 148.202 1457.72 154.37C1541.8 160.539 1582.25 136.894 1676.44 114.62C1770.63 92.3455 1886.31 145.632 1976.08 143.405C2065.84 141.177 2083.54 127.641 2083.54 127.641V263H0V127.641Z" fill="#BAE8C9"/>
<path d="M0 127.641C0 127.641 72.0643 151.972 134.646 159.511C197.229 167.05 273.718 169.448 358.425 152.657C443.132 135.866 562.607 91.3174 659.957 86.5199C757.307 81.7224 830.004 111.536 921.664 118.046C1013.33 124.557 1102.46 80.3517 1242.79 105.71C1383.13 131.068 1373.65 148.202 1457.72 154.37C1541.8 160.539 1582.25 136.894 1676.44 114.62C1770.63 92.3455 1886.31 145.632 1976.08 143.405C2065.84 141.177 2083.54 127.641 2083.54 127.641V263H0V127.641Z" fill="#BAE8C9"/>
<path d="M0 127.641C0 127.641 72.0643 151.972 134.646 159.511C197.229 167.05 273.718 169.448 358.425 152.657C443.132 135.866 562.607 91.3174 659.957 86.5199C757.307 81.7224 830.004 111.536 921.664 118.046C1013.33 124.557 1102.46 80.3517 1242.79 105.71C1383.13 131.068 1373.65 148.202 1457.72 154.37C1541.8 160.539 1582.25 136.894 1676.44 114.62C1770.63 92.3455 1886.31 145.632 1976.08 143.405C2065.84 141.177 2083.54 127.641 2083.54 127.641V263H0V127.641Z" fill="#BAE8C9"/>
<path d="M0 127.641C0 127.641 72.0643 151.972 134.646 159.511C197.229 167.05 273.718 169.448 358.425 152.657C443.132 135.866 562.607 91.3174 659.957 86.5199C757.307 81.7224 830.004 111.536 921.664 118.046C1013.33 124.557 1102.46 80.3517 1242.79 105.71C1383.13 131.068 1373.65 148.202 1457.72 154.37C1541.8 160.539 1582.25 136.894 1676.44 114.62C1770.63 92.3455 1886.31 145.632 1976.08 143.405C2065.84 141.177 2083.54 127.641 2083.54 127.641V263H0V127.641Z" fill="#BAE8C9"/>
<path d="M0 127.641C0 127.641 72.0643 151.972 134.646 159.511C197.229 167.05 273.718 169.448 358.425 152.657C443.132 135.866 562.607 91.3174 659.957 86.5199C757.307 81.7224 830.004 111.536 921.664 118.046C1013.33 124.557 1102.46 80.3517 1242.79 105.71C1383.13 131.068 1373.65 148.202 1457.72 154.37C1541.8 160.539 1582.25 136.894 1676.44 114.62C1770.63 92.3455 1886.31 145.632 1976.08 143.405C2065.84 141.177 2083.54 127.641 2083.54 127.641V263H0V127.641Z" fill="#BAE8C9"/>
<path d="M0 127.641C0 127.641 72.0643 151.972 134.646 159.511C197.229 167.05 273.718 169.448 358.425 152.657C443.132 135.866 562.607 91.3174 659.957 86.5199C757.307 81.7224 830.004 111.536 921.664 118.046C1013.33 124.557 1102.46 80.3517 1242.79 105.71C1383.13 131.068 1373.65 148.202 1457.72 154.37C1541.8 160.539 1582.25 136.894 1676.44 114.62C1770.63 92.3455 1886.31 145.632 1976.08 143.405C2065.84 141.177 2083.54 127.641 2083.54 127.641V263H0V127.641Z" fill="#BAE8C9"/>
<path d="M0 127.641C0 127.641 72.0643 151.972 134.646 159.511C197.229 167.05 273.718 169.448 358.425 152.657C443.132 135.866 562.607 91.3174 659.957 86.5199C757.307 81.7224 830.004 111.536 921.664 118.046C1013.33 124.557 1102.46 80.3517 1242.79 105.71C1383.13 131.068 1373.65 148.202 1457.72 154.37C1541.8 160.539 1582.25 136.894 1676.44 114.62C1770.63 92.3455 1886.31 145.632 1976.08 143.405C2065.84 141.177 2083.54 127.641 2083.54 127.641V263H0V127.641Z" fill="#BAE8C9"/>
<path d="M0 127.641C0 127.641 72.0643 151.972 134.646 159.511C197.229 167.05 273.718 169.448 358.425 152.657C443.132 135.866 562.607 91.3174 659.957 86.5199C757.307 81.7224 830.004 111.536 921.664 118.046C1013.33 124.557 1102.46 80.3517 1242.79 105.71C1383.13 131.068 1373.65 148.202 1457.72 154.37C1541.8 160.539 1582.25 136.894 1676.44 114.62C1770.63 92.3455 1886.31 145.632 1976.08 143.405C2065.84 141.177 2083.54 127.641 2083.54 127.641V263H0V127.641Z" fill="#BAE8C9"/>
<path d="M0 127.641C0 127.641 72.0643 151.972 134.646 159.511C197.229 167.05 273.718 169.448 358.425 152.657C443.132 135.866 562.607 91.3174 659.957 86.5199C757.307 81.7224 830.004 111.536 921.664 118.046C1013.33 124.557 1102.46 80.3517 1242.79 105.71C1383.13 131.068 1373.65 148.202 1457.72 154.37C1541.8 160.539 1582.25 136.894 1676.44 114.62C1770.63 92.3455 1886.31 145.632 1976.08 143.405C2065.84 141.177 2083.54 127.641 2083.54 127.641V263H0V127.641Z" fill="#BAE8C9"/>
<path d="M0 127.641C0 127.641 72.0643 151.972 134.646 159.511C197.229 167.05 273.718 169.448 358.425 152.657C443.132 135.866 562.607 91.3174 659.957 86.5199C757.307 81.7224 830.004 111.536 921.664 118.046C1013.33 124.557 1102.46 80.3517 1242.79 105.71C1383.13 131.068 1373.65 148.202 1457.72 154.37C1541.8 160.539 1582.25 136.894 1676.44 114.62C1770.63 92.3455 1886.31 145.632 1976.08 143.405C2065.84 141.177 2083.54 127.641 2083.54 127.641V263H0V127.641Z" fill="#BAE8C9"/>
<path d="M0 127.641C0 127.641 72.0643 151.972 134.646 159.511C197.229 167.05 273.718 169.448 358.425 152.657C443.132 135.866 562.607 91.3174 659.957 86.5199C757.307 81.7224 830.004 111.536 921.664 118.046C1013.33 124.557 1102.46 80.3517 1242.79 105.71C1383.13 131.068 1373.65 148.202 1457.72 154.37C1541.8 160.539 1582.25 136.894 1676.44 114.62C1770.63 92.3455 1886.31 145.632 1976.08 143.405C2065.84 141.177 2083.54 127.641 2083.54 127.641V263H0V127.641Z" fill="#BAE8C9"/>
<path d="M0 127.641C0 127.641 72.0643 151.972 134.646 159.511C197.229 167.05 273.718 169.448 358.425 152.657C443.132 135.866 562.607 91.3174 659.957 86.5199C757.307 81.7224 830.004 111.536 921.664 118.046C1013.33 124.557 1102.46 80.3517 1242.79 105.71C1383.13 131.068 1373.65 148.202 1457.72 154.37C1541.8 160.539 1582.25 136.894 1676.44 114.62C1770.63 92.3455 1886.31 145.632 1976.08 143.405C2065.84 141.177 2083.54 127.641 2083.54 127.641V263H0V127.641Z" fill="#BAE8C9"/>
</svg>
