<svg width="2084" height="177" viewBox="0 0 2084 177" fill="none" xmlns="http://www.w3.org/2000/svg">
<path d="M0 57C0 57 72.0643 65.9717 134.646 73.5107C197.229 81.0496 273.718 83.4484 358.425 66.6571C443.132 49.8658 562.607 5.31744 659.957 0.519932C757.307 -4.27757 830.004 25.5355 921.664 32.0465C1013.33 38.5574 1102.46 -5.64831 1242.79 19.71C1383.13 45.0683 1373.65 62.2023 1457.72 68.3705C1541.8 74.5387 1582.25 50.8938 1676.44 28.6197C1770.63 6.34548 1886.31 59.6322 1976.08 57.4047C2065.84 55.1773 2083.54 57.4047 2083.54 57.4047V177H0V57Z" fill="#BAE8C9"/>
<path d="M0 57C0 57 72.0643 65.9717 134.646 73.5107C197.229 81.0496 273.718 83.4484 358.425 66.6571C443.132 49.8658 562.607 5.31744 659.957 0.519932C757.307 -4.27757 830.004 25.5355 921.664 32.0465C1013.33 38.5574 1102.46 -5.64831 1242.79 19.71C1383.13 45.0683 1373.65 62.2023 1457.72 68.3705C1541.8 74.5387 1582.25 50.8938 1676.44 28.6197C1770.63 6.34548 1886.31 59.6322 1976.08 57.4047C2065.84 55.1773 2083.54 57.4047 2083.54 57.4047V177H0V57Z" fill="#BAE8C9"/>
<path d="M0 57C0 57 72.0643 65.9717 134.646 73.5107C197.229 81.0496 273.718 83.4484 358.425 66.6571C443.132 49.8658 562.607 5.31744 659.957 0.519932C757.307 -4.27757 830.004 25.5355 921.664 32.0465C1013.33 38.5574 1102.46 -5.64831 1242.79 19.71C1383.13 45.0683 1373.65 62.2023 1457.72 68.3705C1541.8 74.5387 1582.25 50.8938 1676.44 28.6197C1770.63 6.34548 1886.31 59.6322 1976.08 57.4047C2065.84 55.1773 2083.54 57.4047 2083.54 57.4047V177H0V57Z" fill="#BAE8C9"/>
<path d="M0 57C0 57 72.0643 65.9717 134.646 73.5107C197.229 81.0496 273.718 83.4484 358.425 66.6571C443.132 49.8658 562.607 5.31744 659.957 0.519932C757.307 -4.27757 830.004 25.5355 921.664 32.0465C1013.33 38.5574 1102.46 -5.64831 1242.79 19.71C1383.13 45.0683 1373.65 62.2023 1457.72 68.3705C1541.8 74.5387 1582.25 50.8938 1676.44 28.6197C1770.63 6.34548 1886.31 59.6322 1976.08 57.4047C2065.84 55.1773 2083.54 57.4047 2083.54 57.4047V177H0V57Z" fill="#BAE8C9"/>
<path d="M0 57C0 57 72.0643 65.9717 134.646 73.5107C197.229 81.0496 273.718 83.4484 358.425 66.6571C443.132 49.8658 562.607 5.31744 659.957 0.519932C757.307 -4.27757 830.004 25.5355 921.664 32.0465C1013.33 38.5574 1102.46 -5.64831 1242.79 19.71C1383.13 45.0683 1373.65 62.2023 1457.72 68.3705C1541.8 74.5387 1582.25 50.8938 1676.44 28.6197C1770.63 6.34548 1886.31 59.6322 1976.08 57.4047C2065.84 55.1773 2083.54 57.4047 2083.54 57.4047V177H0V57Z" fill="#BAE8C9"/>
<path d="M0 57C0 57 72.0643 65.9717 134.646 73.5107C197.229 81.0496 273.718 83.4484 358.425 66.6571C443.132 49.8658 562.607 5.31744 659.957 0.519932C757.307 -4.27757 830.004 25.5355 921.664 32.0465C1013.33 38.5574 1102.46 -5.64831 1242.79 19.71C1383.13 45.0683 1373.65 62.2023 1457.72 68.3705C1541.8 74.5387 1582.25 50.8938 1676.44 28.6197C1770.63 6.34548 1886.31 59.6322 1976.08 57.4047C2065.84 55.1773 2083.54 57.4047 2083.54 57.4047V177H0V57Z" fill="#BAE8C9"/>
<path d="M0 57C0 57 72.0643 65.9717 134.646 73.5107C197.229 81.0496 273.718 83.4484 358.425 66.6571C443.132 49.8658 562.607 5.31744 659.957 0.519932C757.307 -4.27757 830.004 25.5355 921.664 32.0465C1013.33 38.5574 1102.46 -5.64831 1242.79 19.71C1383.13 45.0683 1373.65 62.2023 1457.72 68.3705C1541.8 74.5387 1582.25 50.8938 1676.44 28.6197C1770.63 6.34548 1886.31 59.6322 1976.08 57.4047C2065.84 55.1773 2083.54 57.4047 2083.54 57.4047V177H0V57Z" fill="#BAE8C9"/>
<path d="M0 57C0 57 72.0643 65.9717 134.646 73.5107C197.229 81.0496 273.718 83.4484 358.425 66.6571C443.132 49.8658 562.607 5.31744 659.957 0.519932C757.307 -4.27757 830.004 25.5355 921.664 32.0465C1013.33 38.5574 1102.46 -5.64831 1242.79 19.71C1383.13 45.0683 1373.65 62.2023 1457.72 68.3705C1541.8 74.5387 1582.25 50.8938 1676.44 28.6197C1770.63 6.34548 1886.31 59.6322 1976.08 57.4047C2065.84 55.1773 2083.54 57.4047 2083.54 57.4047V177H0V57Z" fill="#BAE8C9"/>
<path d="M0 57C0 57 72.0643 65.9717 134.646 73.5107C197.229 81.0496 273.718 83.4484 358.425 66.6571C443.132 49.8658 562.607 5.31744 659.957 0.519932C757.307 -4.27757 830.004 25.5355 921.664 32.0465C1013.33 38.5574 1102.46 -5.64831 1242.79 19.71C1383.13 45.0683 1373.65 62.2023 1457.72 68.3705C1541.8 74.5387 1582.25 50.8938 1676.44 28.6197C1770.63 6.34548 1886.31 59.6322 1976.08 57.4047C2065.84 55.1773 2083.54 57.4047 2083.54 57.4047V177H0V57Z" fill="#BAE8C9"/>
<path d="M0 57C0 57 72.0643 65.9717 134.646 73.5107C197.229 81.0496 273.718 83.4484 358.425 66.6571C443.132 49.8658 562.607 5.31744 659.957 0.519932C757.307 -4.27757 830.004 25.5355 921.664 32.0465C1013.33 38.5574 1102.46 -5.64831 1242.79 19.71C1383.13 45.0683 1373.65 62.2023 1457.72 68.3705C1541.8 74.5387 1582.25 50.8938 1676.44 28.6197C1770.63 6.34548 1886.31 59.6322 1976.08 57.4047C2065.84 55.1773 2083.54 57.4047 2083.54 57.4047V177H0V57Z" fill="#BAE8C9"/>
<path d="M0 57C0 57 72.0643 65.9717 134.646 73.5107C197.229 81.0496 273.718 83.4484 358.425 66.6571C443.132 49.8658 562.607 5.31744 659.957 0.519932C757.307 -4.27757 830.004 25.5355 921.664 32.0465C1013.33 38.5574 1102.46 -5.64831 1242.79 19.71C1383.13 45.0683 1373.65 62.2023 1457.72 68.3705C1541.8 74.5387 1582.25 50.8938 1676.44 28.6197C1770.63 6.34548 1886.31 59.6322 1976.08 57.4047C2065.84 55.1773 2083.54 57.4047 2083.54 57.4047V177H0V57Z" fill="#BAE8C9"/>
<path d="M0 57C0 57 72.0643 65.9717 134.646 73.5107C197.229 81.0496 273.718 83.4484 358.425 66.6571C443.132 49.8658 562.607 5.31744 659.957 0.519932C757.307 -4.27757 830.004 25.5355 921.664 32.0465C1013.33 38.5574 1102.46 -5.64831 1242.79 19.71C1383.13 45.0683 1373.65 62.2023 1457.72 68.3705C1541.8 74.5387 1582.25 50.8938 1676.44 28.6197C1770.63 6.34548 1886.31 59.6322 1976.08 57.4047C2065.84 55.1773 2083.54 57.4047 2083.54 57.4047V177H0V57Z" fill="#BAE8C9"/>
<path d="M0 57C0 57 72.0643 65.9717 134.646 73.5107C197.229 81.0496 273.718 83.4484 358.425 66.6571C443.132 49.8658 562.607 5.31744 659.957 0.519932C757.307 -4.27757 830.004 25.5355 921.664 32.0465C1013.33 38.5574 1102.46 -5.64831 1242.79 19.71C1383.13 45.0683 1373.65 62.2023 1457.72 68.3705C1541.8 74.5387 1582.25 50.8938 1676.44 28.6197C1770.63 6.34548 1886.31 59.6322 1976.08 57.4047C2065.84 55.1773 2083.54 57.4047 2083.54 57.4047V177H0V57Z" fill="#BAE8C9"/>
<path d="M0 57C0 57 72.0643 65.9717 134.646 73.5107C197.229 81.0496 273.718 83.4484 358.425 66.6571C443.132 49.8658 562.607 5.31744 659.957 0.519932C757.307 -4.27757 830.004 25.5355 921.664 32.0465C1013.33 38.5574 1102.46 -5.64831 1242.79 19.71C1383.13 45.0683 1373.65 62.2023 1457.72 68.3705C1541.8 74.5387 1582.25 50.8938 1676.44 28.6197C1770.63 6.34548 1886.31 59.6322 1976.08 57.4047C2065.84 55.1773 2083.54 57.4047 2083.54 57.4047V177H0V57Z" fill="#BAE8C9"/>
<path d="M0 57C0 57 72.0643 65.9717 134.646 73.5107C197.229 81.0496 273.718 83.4484 358.425 66.6571C443.132 49.8658 562.607 5.31744 659.957 0.519932C757.307 -4.27757 830.004 25.5355 921.664 32.0465C1013.33 38.5574 1102.46 -5.64831 1242.79 19.71C1383.13 45.0683 1373.65 62.2023 1457.72 68.3705C1541.8 74.5387 1582.25 50.8938 1676.44 28.6197C1770.63 6.34548 1886.31 59.6322 1976.08 57.4047C2065.84 55.1773 2083.54 57.4047 2083.54 57.4047V177H0V57Z" fill="#BAE8C9"/>
<path d="M0 57C0 57 72.0643 65.9717 134.646 73.5107C197.229 81.0496 273.718 83.4484 358.425 66.6571C443.132 49.8658 562.607 5.31744 659.957 0.519932C757.307 -4.27757 830.004 25.5355 921.664 32.0465C1013.33 38.5574 1102.46 -5.64831 1242.79 19.71C1383.13 45.0683 1373.65 62.2023 1457.72 68.3705C1541.8 74.5387 1582.25 50.8938 1676.44 28.6197C1770.63 6.34548 1886.31 59.6322 1976.08 57.4047C2065.84 55.1773 2083.54 57.4047 2083.54 57.4047V177H0V57Z" fill="#BAE8C9"/>
<path d="M0 57C0 57 72.0643 65.9717 134.646 73.5107C197.229 81.0496 273.718 83.4484 358.425 66.6571C443.132 49.8658 562.607 5.31744 659.957 0.519932C757.307 -4.27757 830.004 25.5355 921.664 32.0465C1013.33 38.5574 1102.46 -5.64831 1242.79 19.71C1383.13 45.0683 1373.65 62.2023 1457.72 68.3705C1541.8 74.5387 1582.25 50.8938 1676.44 28.6197C1770.63 6.34548 1886.31 59.6322 1976.08 57.4047C2065.84 55.1773 2083.54 57.4047 2083.54 57.4047V177H0V57Z" fill="#BAE8C9"/>
<path d="M0 57C0 57 72.0643 65.9717 134.646 73.5107C197.229 81.0496 273.718 83.4484 358.425 66.6571C443.132 49.8658 562.607 5.31744 659.957 0.519932C757.307 -4.27757 830.004 25.5355 921.664 32.0465C1013.33 38.5574 1102.46 -5.64831 1242.79 19.71C1383.13 45.0683 1373.65 62.2023 1457.72 68.3705C1541.8 74.5387 1582.25 50.8938 1676.44 28.6197C1770.63 6.34548 1886.31 59.6322 1976.08 57.4047C2065.84 55.1773 2083.54 57.4047 2083.54 57.4047V177H0V57Z" fill="#BAE8C9"/>
<path d="M0 57C0 57 72.0643 65.9717 134.646 73.5107C197.229 81.0496 273.718 83.4484 358.425 66.6571C443.132 49.8658 562.607 5.31744 659.957 0.519932C757.307 -4.27757 830.004 25.5355 921.664 32.0465C1013.33 38.5574 1102.46 -5.64831 1242.79 19.71C1383.13 45.0683 1373.65 62.2023 1457.72 68.3705C1541.8 74.5387 1582.25 50.8938 1676.44 28.6197C1770.63 6.34548 1886.31 59.6322 1976.08 57.4047C2065.84 55.1773 2083.54 57.4047 2083.54 57.4047V177H0V57Z" fill="#BAE8C9"/>
<path d="M0 57C0 57 72.0643 65.9717 134.646 73.5107C197.229 81.0496 273.718 83.4484 358.425 66.6571C443.132 49.8658 562.607 5.31744 659.957 0.519932C757.307 -4.27757 830.004 25.5355 921.664 32.0465C1013.33 38.5574 1102.46 -5.64831 1242.79 19.71C1383.13 45.0683 1373.65 62.2023 1457.72 68.3705C1541.8 74.5387 1582.25 50.8938 1676.44 28.6197C1770.63 6.34548 1886.31 59.6322 1976.08 57.4047C2065.84 55.1773 2083.54 57.4047 2083.54 57.4047V177H0V57Z" fill="#BAE8C9"/>
<path d="M0 57C0 57 72.0643 65.9717 134.646 73.5107C197.229 81.0496 273.718 83.4484 358.425 66.6571C443.132 49.8658 562.607 5.31744 659.957 0.519932C757.307 -4.27757 830.004 25.5355 921.664 32.0465C1013.33 38.5574 1102.46 -5.64831 1242.79 19.71C1383.13 45.0683 1373.65 62.2023 1457.72 68.3705C1541.8 74.5387 1582.25 50.8938 1676.44 28.6197C1770.63 6.34548 1886.31 59.6322 1976.08 57.4047C2065.84 55.1773 2083.54 57.4047 2083.54 57.4047V177H0V57Z" fill="#BAE8C9"/>
<path d="M0 57C0 57 72.0643 65.9717 134.646 73.5107C197.229 81.0496 273.718 83.4484 358.425 66.6571C443.132 49.8658 562.607 5.31744 659.957 0.519932C757.307 -4.27757 830.004 25.5355 921.664 32.0465C1013.33 38.5574 1102.46 -5.64831 1242.79 19.71C1383.13 45.0683 1373.65 62.2023 1457.72 68.3705C1541.8 74.5387 1582.25 50.8938 1676.44 28.6197C1770.63 6.34548 1886.31 59.6322 1976.08 57.4047C2065.84 55.1773 2083.54 57.4047 2083.54 57.4047V177H0V57Z" fill="#BAE8C9"/>
<path d="M0 57C0 57 72.0643 65.9717 134.646 73.5107C197.229 81.0496 273.718 83.4484 358.425 66.6571C443.132 49.8658 562.607 5.31744 659.957 0.519932C757.307 -4.27757 830.004 25.5355 921.664 32.0465C1013.33 38.5574 1102.46 -5.64831 1242.79 19.71C1383.13 45.0683 1373.65 62.2023 1457.72 68.3705C1541.8 74.5387 1582.25 50.8938 1676.44 28.6197C1770.63 6.34548 1886.31 59.6322 1976.08 57.4047C2065.84 55.1773 2083.54 57.4047 2083.54 57.4047V177H0V57Z" fill="#BAE8C9"/>
<path d="M0 57C0 57 72.0643 65.9717 134.646 73.5107C197.229 81.0496 273.718 83.4484 358.425 66.6571C443.132 49.8658 562.607 5.31744 659.957 0.519932C757.307 -4.27757 830.004 25.5355 921.664 32.0465C1013.33 38.5574 1102.46 -5.64831 1242.79 19.71C1383.13 45.0683 1373.65 62.2023 1457.72 68.3705C1541.8 74.5387 1582.25 50.8938 1676.44 28.6197C1770.63 6.34548 1886.31 59.6322 1976.08 57.4047C2065.84 55.1773 2083.54 57.4047 2083.54 57.4047V177H0V57Z" fill="#BAE8C9"/>
<path d="M0 57C0 57 72.0643 65.9717 134.646 73.5107C197.229 81.0496 273.718 83.4484 358.425 66.6571C443.132 49.8658 562.607 5.31744 659.957 0.519932C757.307 -4.27757 830.004 25.5355 921.664 32.0465C1013.33 38.5574 1102.46 -5.64831 1242.79 19.71C1383.13 45.0683 1373.65 62.2023 1457.72 68.3705C1541.8 74.5387 1582.25 50.8938 1676.44 28.6197C1770.63 6.34548 1886.31 59.6322 1976.08 57.4047C2065.84 55.1773 2083.54 57.4047 2083.54 57.4047V177H0V57Z" fill="#BAE8C9"/>
<path d="M0 57C0 57 72.0643 65.9717 134.646 73.5107C197.229 81.0496 273.718 83.4484 358.425 66.6571C443.132 49.8658 562.607 5.31744 659.957 0.519932C757.307 -4.27757 830.004 25.5355 921.664 32.0465C1013.33 38.5574 1102.46 -5.64831 1242.79 19.71C1383.13 45.0683 1373.65 62.2023 1457.72 68.3705C1541.8 74.5387 1582.25 50.8938 1676.44 28.6197C1770.63 6.34548 1886.31 59.6322 1976.08 57.4047C2065.84 55.1773 2083.54 57.4047 2083.54 57.4047V177H0V57Z" fill="#BAE8C9"/>
<path d="M0 57C0 57 72.0643 65.9717 134.646 73.5107C197.229 81.0496 273.718 83.4484 358.425 66.6571C443.132 49.8658 562.607 5.31744 659.957 0.519932C757.307 -4.27757 830.004 25.5355 921.664 32.0465C1013.33 38.5574 1102.46 -5.64831 1242.79 19.71C1383.13 45.0683 1373.65 62.2023 1457.72 68.3705C1541.8 74.5387 1582.25 50.8938 1676.44 28.6197C1770.63 6.34548 1886.31 59.6322 1976.08 57.4047C2065.84 55.1773 2083.54 57.4047 2083.54 57.4047V177H0V57Z" fill="#BAE8C9"/>
<path d="M0 57C0 57 72.0643 65.9717 134.646 73.5107C197.229 81.0496 273.718 83.4484 358.425 66.6571C443.132 49.8658 562.607 5.31744 659.957 0.519932C757.307 -4.27757 830.004 25.5355 921.664 32.0465C1013.33 38.5574 1102.46 -5.64831 1242.79 19.71C1383.13 45.0683 1373.65 62.2023 1457.72 68.3705C1541.8 74.5387 1582.25 50.8938 1676.44 28.6197C1770.63 6.34548 1886.31 59.6322 1976.08 57.4047C2065.84 55.1773 2083.54 57.4047 2083.54 57.4047V177H0V57Z" fill="#BAE8C9"/>
<path d="M0 57C0 57 72.0643 65.9717 134.646 73.5107C197.229 81.0496 273.718 83.4484 358.425 66.6571C443.132 49.8658 562.607 5.31744 659.957 0.519932C757.307 -4.27757 830.004 25.5355 921.664 32.0465C1013.33 38.5574 1102.46 -5.64831 1242.79 19.71C1383.13 45.0683 1373.65 62.2023 1457.72 68.3705C1541.8 74.5387 1582.25 50.8938 1676.44 28.6197C1770.63 6.34548 1886.31 59.6322 1976.08 57.4047C2065.84 55.1773 2083.54 57.4047 2083.54 57.4047V177H0V57Z" fill="#BAE8C9"/>
<path d="M0 57C0 57 72.0643 65.9717 134.646 73.5107C197.229 81.0496 273.718 83.4484 358.425 66.6571C443.132 49.8658 562.607 5.31744 659.957 0.519932C757.307 -4.27757 830.004 25.5355 921.664 32.0465C1013.33 38.5574 1102.46 -5.64831 1242.79 19.71C1383.13 45.0683 1373.65 62.2023 1457.72 68.3705C1541.8 74.5387 1582.25 50.8938 1676.44 28.6197C1770.63 6.34548 1886.31 59.6322 1976.08 57.4047C2065.84 55.1773 2083.54 57.4047 2083.54 57.4047V177H0V57Z" fill="#BAE8C9"/>
<path d="M0 57C0 57 72.0643 65.9717 134.646 73.5107C197.229 81.0496 273.718 83.4484 358.425 66.6571C443.132 49.8658 562.607 5.31744 659.957 0.519932C757.307 -4.27757 830.004 25.5355 921.664 32.0465C1013.33 38.5574 1102.46 -5.64831 1242.79 19.71C1383.13 45.0683 1373.65 62.2023 1457.72 68.3705C1541.8 74.5387 1582.25 50.8938 1676.44 28.6197C1770.63 6.34548 1886.31 59.6322 1976.08 57.4047C2065.84 55.1773 2083.54 57.4047 2083.54 57.4047V177H0V57Z" fill="#BAE8C9"/>
<path d="M0 57C0 57 72.0643 65.9717 134.646 73.5107C197.229 81.0496 273.718 83.4484 358.425 66.6571C443.132 49.8658 562.607 5.31744 659.957 0.519932C757.307 -4.27757 830.004 25.5355 921.664 32.0465C1013.33 38.5574 1102.46 -5.64831 1242.79 19.71C1383.13 45.0683 1373.65 62.2023 1457.72 68.3705C1541.8 74.5387 1582.25 50.8938 1676.44 28.6197C1770.63 6.34548 1886.31 59.6322 1976.08 57.4047C2065.84 55.1773 2083.54 57.4047 2083.54 57.4047V177H0V57Z" fill="#BAE8C9"/>
</svg>
