<svg width="90" height="90" viewBox="0 0 90 90" fill="none" xmlns="http://www.w3.org/2000/svg">
<rect width="90" height="90" rx="45" fill="#F0F7F0"/>
<path d="M75.625 39.5313C75.625 41.0455 75.176 42.5258 74.3347 43.7848C73.4934 45.0439 72.2977 46.0252 70.8987 46.6047C69.4997 47.1842 67.9603 47.3358 66.4751 47.0404C64.9899 46.745 63.6257 46.0158 62.555 44.945C61.4842 43.8743 60.755 42.5101 60.4596 41.0249C60.1642 39.5397 60.3158 38.0003 60.8953 36.6013C61.4748 35.2023 62.4561 34.0066 63.7152 33.1653C64.9742 32.324 66.4545 31.875 67.9688 31.875C69.9993 31.875 71.9467 32.6816 73.3825 34.1175C74.8184 35.5533 75.625 37.5007 75.625 39.5313ZM29.6875 39.5313C29.6875 38.017 29.2385 36.5367 28.3972 35.2777C27.5559 34.0186 26.3602 33.0373 24.9612 32.4578C23.5622 31.8783 22.0228 31.7267 20.5376 32.0221C19.0524 32.3175 17.6882 33.0467 16.6175 34.1175C15.5467 35.1882 14.8175 36.5524 14.5221 38.0376C14.2267 39.5228 14.3783 41.0622 14.9578 42.4612C15.5373 43.8602 16.5186 45.0559 17.7777 45.8972C19.0367 46.7385 20.517 47.1875 22.0313 47.1875C24.0618 47.1875 26.0092 46.3809 27.445 44.945C28.8809 43.5092 29.6875 41.5618 29.6875 39.5313ZM35.1563 34.0625C36.6705 34.0625 38.1508 33.6135 39.4098 32.7722C40.6689 31.9309 41.6502 30.7352 42.2297 29.3362C42.8092 27.9372 42.9608 26.3978 42.6654 24.9126C42.37 23.4274 41.6408 22.0632 40.57 20.9925C39.4993 19.9217 38.1351 19.1925 36.6499 18.8971C35.1647 18.6017 33.6253 18.7533 32.2263 19.3328C30.8273 19.9123 29.6316 20.8936 28.7903 22.1527C27.949 23.4117 27.5 24.892 27.5 26.4063C27.5 28.4368 28.3066 30.3842 29.7425 31.82C31.1783 33.2559 33.1257 34.0625 35.1563 34.0625ZM54.8438 34.0625C56.358 34.0625 57.8383 33.6135 59.0973 32.7722C60.3564 31.9309 61.3377 30.7352 61.9172 29.3362C62.4967 27.9372 62.6483 26.3978 62.3529 24.9126C62.0575 23.4274 61.3283 22.0632 60.2575 20.9925C59.1868 19.9217 57.8226 19.1925 56.3374 18.8971C54.8522 18.6017 53.3128 18.7533 51.9138 19.3328C50.5148 19.9123 49.3191 20.8936 48.4778 22.1527C47.6365 23.4117 47.1875 24.892 47.1875 26.4063C47.1875 28.4368 47.9941 30.3842 49.43 31.82C50.8658 33.2559 52.8132 34.0625 54.8438 34.0625ZM61.1656 50.7039C60.0545 50.0909 59.0752 49.2649 58.2836 48.273C57.4921 47.2811 56.9039 46.1429 56.5527 44.9234C55.8254 42.4222 54.3059 40.2245 52.2227 38.6607C50.1394 37.097 47.6049 36.2516 45 36.2516C42.3951 36.2516 39.8606 37.097 37.7773 38.6607C35.6941 40.2245 34.1746 42.4222 33.4473 44.9234C32.7447 47.3772 31.0976 49.4521 28.8672 50.693C26.7276 51.8507 25.035 53.6887 24.0572 55.9163C23.0794 58.1439 22.8722 60.6339 23.4682 62.9924C24.0643 65.351 25.4297 67.4436 27.3484 68.9391C29.2672 70.4347 31.6298 71.2478 34.0625 71.25C35.5204 71.2542 36.964 70.9631 38.3063 70.3941C42.5857 68.6292 47.3897 68.6292 51.6691 70.3941C54.2612 71.5215 57.1891 71.6016 59.8389 70.6176C62.4887 69.6336 64.6546 67.662 65.8827 65.1161C67.1107 62.5702 67.3055 59.6477 66.4261 56.9614C65.5467 54.2751 63.6614 52.0335 61.1656 50.7066V50.7039Z" fill="#00BD70"/>
</svg>
